<?xml version="1.0" encoding="utf-8"?>

<!-- Generator: Adobe Illustrator 18.1.0, SVG Export Plug-In . SVG Version: 6.00 Build 0)  -->
<svg version="1.1" id="Layer_1" xmlns="http://www.w3.org/2000/svg" xmlns:xlink="http://www.w3.org/1999/xlink" x="0px" y="0px"
	 viewBox="0 0 612 612" enable-background="new 0 0 612 612" xml:space="preserve">
<g>
	<g>
		<circle fill="#3FAA96" cx="306" cy="306.6" r="300"/>
	</g>
</g>
<path fill="#37907F" d="M514.5,142c-8.5,13.8-17.2,27.5-25.6,41.9c-34.7,57.7-66,114.6-94.4,170.3c-19.2,11.9-38.4,23.6-57.6,35.4
	c-72.5,17.2-145.1,34.2-217.5,51.5c74.5,54.7,149,109.4,223.4,164C472.8,588.5,583,483.7,602,355.7
	c-44.9-38.2-92.2-70.8-137.1-109.2c5.9-13.4,11.8-26.8,17.6-40.2C493.2,184.8,503.8,163.4,514.5,142z"/>
<g>
	<path fill="#3F4843" d="M378.8,418.8c-1.6-1.1-4.1,1.7-2.6-1.3s8.5-18.2,11.3-23.7c12.2-23.5,1.7-27.2-30.5-32.7
		c-30.6-5.4-83.7-21.6-138.7-21.6c-74.1,0-125,27-125,44.4c0,9.5,14.8,31.8,14.8,31.8s1,2.2-15.5-2.7c-4.9-1.5-8.6-2.6-11.6-3.6
		c26.7,35.4,82.5,90.2,155.2,90.2c75.2,0,129.2-45.4,145.7-76C381.5,420.9,379.8,419.5,378.8,418.8z"/>
	<path fill="#313A37" d="M217.6,341.8c20.3,0,168.8,25.3,168.8,36c0,10.8-24.3,119.5-149.6,119.5c-101.3,0.1-131.9-94.7-131.9-111.1
		C104.9,363.1,148.1,341.8,217.6,341.8z"/>
	<path fill="#D9E1E3" d="M392.4,325.9c-4.8,7.9-15.4,25.6-32.3,25.6c-22.4,0-56.4-31-127.5-31c-107.8,0-124.3,27.7-124.3,27.7
		s-6.9,5.7-16.1,11.6s-28,10.8-28,20.7c0,2.7,6,14,17,28.9c2.8,1.1,6.6,2.3,11.6,3.6c16.5,4.9,15.5,2.7,15.5,2.7s-14.9-22.5-14.9-32
		c0-17.4,50.8-44.4,125-44.4c55.1,0,108.3,16.1,138.7,21.6c32.2,5.8,42.5,9.2,30.5,32.7c-2.7,5.4-9.8,20.7-11.3,23.7
		s1.1,0.1,2.6,1.3c1.1,0.7,2.6,2.3,3.1,4.9c12.6-23.7,25-54.3,38.4-79.7c-3.8-1.1-9.2-2.8-15.4-6.8
		C398.5,333.1,394.5,329.2,392.4,325.9z"/>
	<g>
		<path d="M450.7,277.6l-12.6-6.9c-2.2-1.2-8-0.5-10.9,3.2c-2.8,3.7-22.8,31.5-22.8,31.5c6.9,6,17.4,13.8,28.4,17.6
			c2.2-4.1,17-32.4,19.4-36.1C454.7,282.9,450.7,277.6,450.7,277.6z"/>
		<path fill="#1B211F" d="M392.6,325.8C392.6,325.8,392.4,325.8,392.6,325.8c2.1,3.4,6,7.4,12.4,11.3c6.3,3.8,11.7,5.8,15.4,6.8
			c3.9-7.5,7.9-14.3,12.2-20.4c0,0,0.1-0.2,0.2-0.5c-10.9-3.8-21.6-11.7-28.4-17.6C404.3,305.1,397.2,318,392.6,325.8z"/>
	</g>
	<g>
		<path d="M440.6,278.9l-0.2-0.1c-4.9-3.1-8.4-5.9-5.3-10.9L512.8,143c3.1-4.9,9.6-6.6,14.8-3.4l0.2,0.1c4.9,3.1,6.6,9.6,3.4,14.8
			l-77.6,125C450.5,284.2,445.7,282,440.6,278.9z"/>
	</g>
	<path fill="#FFFFFF" d="M191.9,376.8c0,0.6-0.5,1.1-1.1,1.1h-46.3c-0.6,0-1.1-0.5-1.1-1.1l0,0c0-0.6,0.5-1.1,1.1-1.1h46.3
		C191.4,375.7,191.9,376.2,191.9,376.8L191.9,376.8z"/>
	<path fill="#FFFFFF" d="M178.5,396.6c0,0.6-0.5,1.1-1.1,1.1h-47.2c-0.6,0-1.1-0.5-1.1-1.1l0,0c0-0.6,0.5-1.1,1.1-1.1h47.2
		C178.1,395.5,178.5,396,178.5,396.6L178.5,396.6z"/>
	<path fill="#FFFFFF" d="M178.8,416.5c0,0.6-0.5,1.1-1.1,1.1h-41.2c-0.6,0-1.1-0.5-1.1-1.1l0,0c0-0.6,0.5-1.1,1.1-1.1h41.2
		C178.3,415.4,178.8,415.9,178.8,416.5L178.8,416.5z"/>
	<path fill="#FFFFFF" d="M178.8,436.3c0,0.6-0.5,1.1-1.1,1.1H153c-0.6,0-1.1-0.5-1.1-1.1l0,0c0-0.6,0.5-1.1,1.1-1.1h24.8
		C178.3,435.3,178.8,435.8,178.8,436.3L178.8,436.3z"/>
	<path fill="#FFFFFF" d="M190.4,456.2c0,0.6-0.5,1.1-1.1,1.1h-22c-0.6,0-1.1-0.5-1.1-1.1l0,0c0-0.6,0.5-1.1,1.1-1.1h22
		C190,455.2,190.4,455.6,190.4,456.2L190.4,456.2z"/>
	<path fill="#FFFFFF" d="M284.4,376.8c0,0.6,0.5,1.1,1.1,1.1h46.3c0.6,0,1.1-0.5,1.1-1.1l0,0c0-0.6-0.5-1.1-1.1-1.1h-46.3
		C284.9,375.7,284.4,376.2,284.4,376.8L284.4,376.8z"/>
	<path fill="#FFFFFF" d="M297.9,396.6c0,0.6,0.5,1.1,1.1,1.1h47.2c0.6,0,1.1-0.5,1.1-1.1l0,0c0-0.6-0.5-1.1-1.1-1.1H299
		C298.3,395.5,297.9,396,297.9,396.6L297.9,396.6z"/>
	<path fill="#FFFFFF" d="M297.5,416.5c0,0.6,0.5,1.1,1.1,1.1h46.3c0.6,0,1.1-0.5,1.1-1.1l0,0c0-0.6-0.5-1.1-1.1-1.1h-46.3
		C298,415.4,297.5,415.9,297.5,416.5L297.5,416.5z"/>
	<path fill="#FFFFFF" d="M297.5,436.3c0,0.6,0.5,1.1,1.1,1.1h24.8c0.6,0,1.1-0.5,1.1-1.1l0,0c0-0.6-0.5-1.1-1.1-1.1h-24.8
		C298,435.3,297.5,435.8,297.5,436.3L297.5,436.3z"/>
	<path fill="#FFFFFF" d="M285.9,456.2c0,0.6,0.5,1.1,1.1,1.1h22c0.6,0,1.1-0.5,1.1-1.1l0,0c0-0.6-0.5-1.1-1.1-1.1h-22
		C286.2,455.2,285.9,455.6,285.9,456.2L285.9,456.2z"/>
	<path fill="#FFFFFF" d="M248.5,383.2c0,0.6-0.5,1.1-1.1,1.1h-19.1c-0.6,0-1.1-0.5-1.1-1.1l0,0c0-0.6,0.5-1.1,1.1-1.1h19.1
		C248.1,382,248.5,382.4,248.5,383.2L248.5,383.2z"/>
	<path fill="#FFFFFF" d="M270.7,400c0,0.6-0.5,1.1-1.1,1.1H206c-0.6,0-1.1-0.5-1.1-1.1l0,0c0-0.6,0.5-1.1,1.1-1.1h63.6
		C270.2,399.1,270.7,399.4,270.7,400L270.7,400z"/>
	<path fill="#FFFFFF" d="M271.2,435.1c0,0.6-0.5,1.1-1.1,1.1h-63.6c-0.6,0-1.1-0.5-1.1-1.1l0,0c0-0.6,0.5-1.1,1.1-1.1h63.6
		C270.7,434.1,271.2,434.6,271.2,435.1L271.2,435.1z"/>
	<path fill="#FFFFFF" d="M251.1,452.3c0,0.6-0.5,1.1-1.1,1.1h-22c-0.6,0-1.1-0.5-1.1-1.1l0,0c0-0.6,0.5-1.1,1.1-1.1h22
		C250.7,451.3,251.1,451.8,251.1,452.3L251.1,452.3z"/>
</g>
</svg>
