<?xml version="1.0" encoding="utf-8"?>
<?xml-stylesheet type="text/css" href="dddd.css" ?>
<!-- Generator: Adobe Illustrator 18.1.0, SVG Export Plug-In . SVG Version: 6.00 Build 0)  -->
<svg version="1.1" id="Layer_1" xmlns="http://www.w3.org/2000/svg" xmlns:xlink="http://www.w3.org/1999/xlink" x="0px" y="0px"
	 viewBox="0 0 612 612" enable-background="new 0 0 612 612" xml:space="preserve">
<g>
	<g>
		<circle class="test" fill="#3FAA96" cx="306" cy="306.6" r="300"/>
	</g>
</g>
<path class="test"  fill="#37907F" d="M357,91.1c-1.1-1.3-3.2-0.8-3.7,0.8c-3.9,12.8-7.7,25.5-11.6,38.3c-2.6,8-5.2,16.1-7.9,24.1
	c0,0.1,0,0.1-0.1,0.2c-9,40.9-17.9,81.7-26.9,122.4c0,0.2-0.1,0.3-0.1,0.5v268.9c0,0.5,0.1,0.9,0.4,1.3
	c13.4,18.6,26.9,37.3,40.3,55.9c0.5,0.6,1.2,1,2,0.9c128-17.2,230.2-116.4,253.4-243.9c0.1-0.7-0.1-1.4-0.6-1.9L454.7,209.3
	c-0.5-0.5-0.7-1.3-0.6-2.1l0,0c0.2-0.7,0-1.4-0.5-1.9C421.4,167.2,389.3,129.1,357,91.1z"/>
<g>
	<path fill="#C3334F" d="M354.2,104.6v-15c0-6-22-6-47.4-6c-25.3,0-47.4,0-47.4,6v15c0,0.6,0.2,1.2,0.6,1.7c0.2,0.2,0.5,0.7,0.9,1.3
		c11.1,2.1,26.2,3.3,46.1,3.3s34.9-1.2,46.1-3.3c0.4-0.6,0.6-1,0.9-1.3C353.9,105.8,354.2,105.1,354.2,104.6z"/>
	<path fill="#CF5063" d="M306.7,92.6c-25,0-41.4-1.3-41.4-3.1s16.4-3.1,41.4-3.1s41.4,1.3,41.4,3.1S331.7,92.6,306.7,92.6"/>
	<g>
		<path fill="#CD3041" d="M291.5,502.8c3.1,11.5,11.5,43.2,12.4,46.8c0.6,2.3,1.1,3.5,2.9,3.5s2.3-1.2,2.9-3.5
			c1-3.8,9.3-35.2,12.4-46.8c-4.5,1.3-9.8,2.2-15.3,2.2C301.2,505,295.9,504.2,291.5,502.8z"/>
		<path fill="#C31F42" d="M323.1,252.5c0-91.2,23.7-134.4,29.7-143.8c-11.1,2.1-26.2,3.3-46.1,3.3s-34.9-1.2-46.1-3.3
			c6,9.5,29.7,52.6,29.7,143.8c0,104.6,0,244.9,0,244.9s0.5,1.6,1.1,4.3c4.5,1.3,9.8,2.2,15.3,2.2c5.6,0,10.8-0.9,15.3-2.2
			c0.7-2.7,1.1-4.3,1.1-4.3S323.1,357.1,323.1,252.5z"/>
	</g>
</g>
</svg>
