<?xml version="1.0" encoding="utf-8"?>
<!-- Generator: Adobe Illustrator 18.1.0, SVG Export Plug-In . SVG Version: 6.00 Build 0)  -->
<svg version="1.1" id="Layer_1" xmlns="http://www.w3.org/2000/svg" xmlns:xlink="http://www.w3.org/1999/xlink" x="0px" y="0px"
	 viewBox="0 0 612 612" enable-background="new 0 0 612 612" xml:space="preserve">
<g>
	
		<image overflow="visible" opacity="0.57" enable-background="new    " width="630" height="630" xlink:href="74D8E11F.png"  transform="matrix(1 0 0 1 0 -2)">
	</image>
	<g>
		<circle fill="#3FAA96" cx="308" cy="306" r="300"/>
	</g>
</g>
<path fill="#FCF7DD" d="M493.5,444c0,5.8-4.2,10.5-9.4,10.5H123.7c-5.2,0-9.4-4.7-9.4-10.5V166.1c0-5.8,4.2-10.5,9.4-10.5h360.4
	c5.2,0,9.4,4.7,9.4,10.5V444z"/>
<path fill="#FFFFFF" d="M468.1,419.3c0,5.4-3.9,9.8-8.6,9.8H150.7c-4.8,0-8.6-4.4-8.6-9.8V191.6c0-5.4,3.9-9.8,8.6-9.8h308.8
	c4.8,0,8.6,4.4,8.6,9.8V419.3z"/>
<path fill="#F5845E" d="M468.1,237.3c0,4.7,1.2,8.5-3.6,8.5H145.6c-4.8,0-3.6-3.8-3.6-8.5v-47c0-4.7,3.9-8.5,8.6-8.5h308.8
	c4.8,0,8.6,3.8,8.6,8.5L468.1,237.3L468.1,237.3z"/>
<rect x="151.9" y="261.8" fill="#AAA9AA" width="30.1" height="30.1"/>
<rect x="197.9" y="261.6" fill="#AAA9AA" width="30.1" height="30.1"/>
<rect x="244.2" y="261.8" fill="#AAA9AA" width="30.1" height="30.1"/>
<rect x="290.5" y="261.6" fill="#AAA9AA" width="30.1" height="30.1"/>
<rect x="336.5" y="261.6" fill="#AAA9AA" width="30.1" height="30.1"/>
<rect x="151.9" y="307" fill="#AAA9AA" width="30.1" height="30.1"/>
<rect x="151.9" y="352" fill="#AAA9AA" width="30.1" height="30.1"/>
<rect x="197.9" y="307" fill="#AAA9AA" width="30.1" height="30.1"/>
<rect x="197.9" y="352" fill="#AAA9AA" width="30.1" height="30.1"/>
<rect x="244.8" y="307" fill="#AAA9AA" width="30.1" height="30.1"/>
<rect x="245.9" y="352" fill="#AAA9AA" width="30.1" height="30.1"/>
<rect x="290.5" y="307" fill="#AAA9AA" width="30.1" height="30.1"/>
<rect x="290.5" y="352" fill="#AAA9AA" width="30.1" height="30.1"/>
<rect x="336.5" y="307" fill="#AAA9AA" width="30.1" height="30.1"/>
<rect x="336.5" y="352" fill="#AAA9AA" width="30.1" height="30.1"/>
<path fill="#AAA9AA" d="M449.4,205.3c0,4.7-3.8,8.5-8.5,8.5h-3.6c-4.7,0-8.5-3.8-8.5-8.5v-61.8c0-4.7,3.8-8.5,8.5-8.5h3.6
	c4.7,0,8.5,3.8,8.5,8.5V205.3z"/>
<path fill="#AAA9AA" d="M209.6,205.3c0,4.7-3.8,8.5-8.5,8.5h-3.6c-4.7,0-8.5-3.8-8.5-8.5v-61.8c0-4.7,3.8-8.5,8.5-8.5h3.6
	c4.7,0,8.5,3.8,8.5,8.5V205.3z"/>
<path fill="#37907F" d="M493.5,158.5c0,0,55.8,129.7,56.2,130.6c9.5,22.4,15.5,34.4,32,78.9c2.2,5.9,11.2,30.4,9.6,37.2
	c-11.9,49.4-52.9,95.6-76.8,118.6c-21,20.2-53.9,43.8-91.2,60c-28.6,12.4-78.8,22.5-107.2,22.3c-21.9-0.1-85.3-2-116.7-20.3
	l-80.8-131.2h365.3c5.3,0,9.6-4.3,9.6-9.6L493.5,158.5L493.5,158.5z"/>
<rect x="382.9" y="261.8" fill="#AAA9AA" width="30.1" height="30.1"/>
<rect x="382.9" y="307.2" fill="#AAA9AA" width="30.1" height="30.1"/>
<rect x="382.9" y="352.2" fill="#AAA9AA" width="30.1" height="30.1"/>
<rect x="427" y="261.8" fill="#F5845E" width="30.1" height="30.1"/>
<rect x="427" y="307.2" fill="#F5845E" width="30.1" height="30.1"/>
<rect x="427" y="352.2" fill="#F5845E" width="30.1" height="30.1"/>
<rect x="153" y="396.3" fill="#AAA9AA" width="30.1" height="30.1"/>
<rect x="199" y="396.3" fill="#AAA9AA" width="30.1" height="30.1"/>
<rect x="247" y="396.3" fill="#AAA9AA" width="30.1" height="30.1"/>
<rect x="291.6" y="396.3" fill="#AAA9AA" width="30.1" height="30.1"/>
<rect x="337.6" y="396.3" fill="#AAA9AA" width="30.1" height="30.1"/>
<rect x="384" y="396.5" fill="#AAA9AA" width="30.1" height="30.1"/>
<rect x="428.1" y="396.5" fill="#F5845E" width="30.1" height="30.1"/>
</svg>
