<?xml version="1.0" encoding="utf-8"?>
<!-- Generator: Adobe Illustrator 16.0.0, SVG Export Plug-In . SVG Version: 6.00 Build 0)  -->
<!DOCTYPE svg PUBLIC "-//W3C//DTD SVG 1.1//EN" "http://www.w3.org/Graphics/SVG/1.1/DTD/svg11.dtd">
<svg version="1.1" id="Layer_1" xmlns="http://www.w3.org/2000/svg" xmlns:xlink="http://www.w3.org/1999/xlink" x="0px" y="0px"
	 width="130px" height="130px" viewBox="0 0 130 130" enable-background="new 0 0 130 130" xml:space="preserve">
<g>
	<g id="Rounded_Rectangle_5_copy_45_4_">
		<path fill="#3FAA96" d="M117.094,0.999H12.906C6.33,0.999,0.999,6.33,0.999,12.906v104.188c0,6.576,5.331,11.907,11.907,11.907
			h104.188c6.576,0,11.907-5.331,11.907-11.907V12.906C129.001,6.33,123.67,0.999,117.094,0.999z"/>
	</g>
	<g id="Shape_364_5_">
		<path fill="#18816D" d="M129.001,117.094V86.803L87.08,44.93l-41.918,41.43L88.2,129.001h28.894
			C123.67,129.001,129.001,123.67,129.001,117.094z"/>
	</g>
	<g id="Shape_389_2_">
		<path fill="#FFF6E4" d="M69.616,64.799l16.22-16.22c1.301-1.301,1.515-3.204,0.198-4.521c-1.317-1.317-3.563-1.469-4.851-0.182
			L64.99,60.2L48.415,43.363c-1.319-1.319-3.582-1.201-4.906,0.123c-1.324,1.323-1.804,3.958-0.478,5.284l16.687,16.75
			L43.654,81.584c-1.302,1.301-1.309,3.411,0.019,4.738c1.326,1.326,3.277,1.143,4.59-0.17l16.198-16.198l16.25,16.187
			c1.314,1.314,3.464,1.304,4.791-0.023s1.461-3.979,0.146-5.294L69.616,64.799z"/>
	</g>
</g>
</svg>
