<?xml version="1.0" encoding="utf-8"?>
<!-- Generator: Adobe Illustrator 18.1.0, SVG Export Plug-In . SVG Version: 6.00 Build 0)  -->
<svg version="1.1" id="Layer_1" xmlns="http://www.w3.org/2000/svg" xmlns:xlink="http://www.w3.org/1999/xlink" x="0px" y="0px"
	 viewBox="412 0 612 612" enable-background="new 412 0 612 612" xml:space="preserve">
<g>
	<image overflow="visible" opacity="0.57" width="631" height="631" xlink:href="CC86425.png"  transform="matrix(1 0 0 1 411 -2)">
	</image>
	<g>
		<g>
			<g>
				<circle fill="#3FAA96" cx="719.3" cy="306.8" r="300"/>
			</g>
		</g>
	</g>
</g>
<path opacity="0.55" fill="#37907F" d="M818.6,186.4c0,0,119.4,145.9,119.8,146.8c28.7,31.3,43.3,49.4,63.7,71.7
	c2.2,5.9-13.3,30.9-14.9,37.7C962,489.3,952.5,501,928.6,524c-21,20.2-53.9,43.8-91.2,60c-28.6,12.4-78.8,22.5-107.2,22.3
	c-21.9-0.1-19.2,16.2-50.6-2.1l-24-177.8l63.7,0c0,0,0.2,2.9,0.3,3.7c0.4,3.9,3.1,8.9,3.1,8.9s4.9,7.5,12.4,9.9c0,0,4.3,1.4,6.5,1.4
	c2.9,0,4.3,0.2,8.4-1c4.5-1.4,7.6-8.6,16-19.1c0.3-0.4,0.4-3,0.4-3.4c0.1-0.8,3.7,0.4,4.1,0.6c3.3,2,3.5,4.6,6.4,5.2
	c6.6,1.5,14.3-3,14.3-3c6.9-3.5,11.9-8.6,13.7-14.8l-16.7-30.6l16.7-105.7L818.6,186.4z"/>
<circle fill="#F7F5F0" cx="645.8" cy="196.9" r="23.8"/>
<circle fill="#F7F5F0" cx="693.9" cy="177.4" r="23.8"/>
<circle fill="#F7F5F0" cx="780.2" cy="196.9" r="23.8"/>
<circle fill="#F7F5F0" cx="737.2" cy="190.6" r="23.8"/>
<polygon fill="#36533C" points="781,426.2 654.5,426.2 618,186.2 817.4,186.2 "/>
<circle fill="#F7F5F0" cx="780.2" cy="408.6" r="23.8"/>
<g>
	<path fill="#FAAC79" d="M720.8,308.3c-1.9,4.8-6.9,7.4-11.2,5.7l-7.2-2.8c-4.3-1.7-6.3-7-4.4-11.8l14.4-37.1
		c1.9-4.8,6.9-7.4,11.2-5.7l7.2,2.8c4.3,1.7,6.3,7,4.4,11.8L720.8,308.3z"/>
	
		<rect x="694" y="233.8" transform="matrix(-0.4803 0.8771 -0.8771 -0.4803 1261.1735 -239.4499)" fill="#FAAC79" width="15" height="40.2"/>
	<path fill="#FAAC79" d="M690.2,247.5c0,2.6-2.6,4.7-5.9,4.7l0,0c-3.2,0-5.9-2.1-5.9-4.7v-26.2c0-2.6,2.6-4.7,5.9-4.7l0,0
		c3.2,0,5.9,2.1,5.9,4.7V247.5z"/>
	<rect x="680" y="218.4" fill="#FAAC79" width="85.4" height="4.3"/>
	<circle fill="#FAAC79" cx="731.7" cy="245.2" r="11.4"/>
	<path fill="#FAAC79" d="M710.8,359.2c0,5.1-3.4,9.3-7.5,9.3l0,0c-4.1,0-7.5-4.1-7.5-9.3v-51.8c0-5.1,3.4-9.3,7.5-9.3l0,0
		c4.1,0,7.5,4.1,7.5,9.3V359.2z"/>
	<path fill="#FAAC79" d="M744.1,356.4c2.1,4.9,0.7,10.2-3.1,11.8l0,0c-3.8,1.6-8.6-1-10.7-5.9l-21.2-49.6
		c-2.1-4.9-0.7-10.2,3.1-11.8l0,0c3.8-1.6,8.6,1,10.7,5.9L744.1,356.4z"/>
	<path fill="#FAAC79" d="M769.9,239.4c0,3.5-2.9,3.8-6.4,3.8l0,0c-3.5,0-6.4-0.9-6.4-4.4l2.9-13c0-3.5,3.5-6.6,3.5-6.6l0,0
		c0,0,2.7,1.9,2.7,6.8L769.9,239.4z"/>
</g>
<circle fill="#F7F5F0" cx="741.8" cy="426.2" r="23.8"/>
</svg>
