<?xml version="1.0" encoding="utf-8"?>
<!-- Generator: Adobe Illustrator 18.1.0, SVG Export Plug-In . SVG Version: 6.00 Build 0)  -->
<svg version="1.1" id="Arrow_1_" xmlns="http://www.w3.org/2000/svg" xmlns:xlink="http://www.w3.org/1999/xlink" x="0px" y="0px"
	 viewBox="-739 251 500 500" enable-background="new -739 251 500 500" xml:space="preserve">
<g>
	<path fill="#3FAA96" d="M-483.8,251.9c-138.1,0-250,111.9-250,250s111.9,250,250,250s250-111.9,250-250S-345.7,251.9-483.8,251.9z
		 M-467.5,678.2h-0.6c-0.6,1-1.3,1.9-2.2,2.8c-6.1,6.1-15.9,6.1-22,0c-0.8-0.8-1.5-1.7-2.1-2.7h-0.5c26.3,26.3-43-43-99.1-99.3
		c-25.6-25.3-59.3-58.6-74-73.2v-0.5c-0.9-0.6-1.8-1.3-2.7-2.1c-6-6-6-15.6,0-21.6c0.8-0.8,1.8-1.5,2.7-2.1v-0.6
		c25-24.7,87.4-86.4,87.4-86.4s15.9,15.7,23,22.7l92.9-93l176.3,176.6C-288.5,498.8-434.3,645-467.5,678.2z"/>
	<path fill="#37907F" d="M-394.6,393.4l-20.1,3.4l-37.3,17.7l78.1,61.3l-205.8,107.6L-452.1,749c108.3-13.7,194.9-96.3,214.1-202.3
		l-125.5-124.6l-4.1-1.9L-394.6,393.4z"/>
	<path fill="#BDC3C7" d="M-668.6,504.3l-2.8-2.8l0.4-0.4C-670.3,502.3-669.5,503.4-668.6,504.3c6.1,6.1,15.9,6.1,22,0l0,0l88.9-89.1
		c-7.1-7-23-22.7-23-22.7s-62.3,61.7-87.3,86.4v0.6c-1,0.6-1.9,1.3-2.7,2.1c-6,6-6,15.6,0,21.6c0.8,0.8,1.7,1.5,2.7,2.1v0.5
		c14.7,14.6,48.4,47.9,74,73.2c-34.2-34.2-63.5-63.6-63.5-63.6L-668.6,504.3z M-657.5,493.3L-657.5,493.3L-657.5,493.3L-657.5,493.3
		z"/>
	<path fill="#EBEDEF" d="M-464.8,322.2l-92.9,93l-88.9,89.1l0,0c-6.1,6.1-16,6.1-22,0l11,11c0,0,29.3,29.4,63.5,63.6
		c56.2,56.3,125.4,125.6,99.1,99.3h0.5c0.6,0.9,1.3,1.9,2.1,2.7c6.1,6.1,15.9,6.1,22,0c0.9-0.9,1.6-1.8,2.2-2.8h0.6
		c33.2-33.2,179-179.4,179-179.4L-464.8,322.2z M-393.8,440.7l-14.4,21.1l22.6-12.8l9.3,9.2l-12.8,22.6l21-14.3l9.2,9.2l-38.6,24.7
		l-9.6-9.6l14.4-25.5l-25.4,14.4l-9.6-9.6l24.6-38.7L-393.8,440.7z M-405.5,428.9l-6.8,6.8l-16.4-16.4l-5,5l15.2,15.2l-6.4,6.4
		l-15.2-15.2l-6.2,6.2l16.9,16.9l-7.2,7.2l-26.7-26.7l31.6-31.6L-405.5,428.9z M-468.5,366l9.1,9.1l-5.6,29.4l17.5-17.5l9.2,9.2
		l-31.5,31.7l-9.2-9.2l5.5-29.2l-17.4,17.4l-9.2-9.2L-468.5,366z M-522.5,420.7l58,58l-63.5,63.5l-58-58L-522.5,420.7z
		 M-472.8,647.1L-610.9,509l13.8-13.8L-459,633.3L-472.8,647.1z M-447.9,622.3l-69.1-69.1l13.8-13.8l69.1,69.1L-447.9,622.3z
		 M-423,597.4l-69.1-69.1l13.8-13.8l69.1,69.1L-423,597.4z M-398.2,572.6l-69.1-69.1l13.8-13.8l69.1,69.1L-398.2,572.6z M-349,496.2
		c-1.1-1.1-2.2-1.8-3.3-1.8c-1.1-0.1-1.9,0.2-2.6,0.9c-0.5,0.5-0.7,1.2-0.6,2.1c0,0.9,0.7,2.4,2.1,4.4c3.4,5.2,5.5,9.2,6.4,12
		s1.1,5.3,0.5,7.5s-1.7,4.2-3.4,5.9c-2,2-4.5,3.3-7.3,3.9c-2.8,0.6-5.7,0.3-8.6-0.8s-5.9-3.2-8.9-6.3c-5.4-5.4-8.1-10.1-8.1-14.3
		c0-4.1,1.5-7.9,4.4-11.4l9.9,8.7c-1.3,1.7-2,3.3-2.2,4.7c-0.3,2.3,0.5,4.4,2.4,6.2c1.4,1.4,2.8,2.1,4.2,2.2
		c1.4,0.1,2.5-0.3,3.4-1.1c0.8-0.8,1.2-1.9,1.1-3.3c-0.1-1.4-1.1-3.6-3.2-6.8c-3.3-5.2-5.1-9.6-5.3-13c-0.2-3.4,0.9-6.4,3.3-8.9
		c1.6-1.6,3.6-2.7,6-3.2s4.9-0.2,7.7,0.8c2.7,1.1,5.7,3.2,9,6.5c4,4,6.4,7.9,7,11.5s-0.5,7.3-3.4,11l-9.8-8.7
		c1.2-1.7,1.7-3.2,1.6-4.6C-346.9,499-347.6,497.6-349,496.2z"/>
	<path fill="#EBEDEF" d="M-671.3,501.6l2.8,2.8c-1-1-1.7-2-2.4-3.2L-671.3,501.6z"/>
	<polygon fill="#EBEDEF" points="-657.5,493.3 -657.6,493.3 -657.6,493.3 	"/>
	
		<rect x="-474.7" y="521.4" transform="matrix(0.7071 0.7071 -0.7071 0.7071 250.8244 456.6671)" fill="#BDC3C7" width="97.7" height="19.5"/>
	
		<rect x="-485.3" y="532" transform="matrix(-0.7071 0.7071 -0.7071 -0.7071 -401.0688 1327.8921)" fill="#BDC3C7" width="19.5" height="97.7"/>
	
		<rect x="-460.4" y="507.2" transform="matrix(-0.7071 0.7071 -0.7071 -0.7071 -376.0809 1267.8431)" fill="#BDC3C7" width="19.5" height="97.7"/>
	
		<rect x="-544.7" y="473.5" transform="matrix(-0.7071 0.7071 -0.7071 -0.7071 -509.3481 1353.3716)" fill="#BDC3C7" width="19.5" height="195.3"/>
	
		<rect x="-566.2" y="436.5" transform="matrix(-0.7071 -0.7071 0.7071 -0.7071 -1236.9805 450.4785)" fill="#BDC3C7" width="82" height="89.8"/>
	<polygon fill="#808C8D" points="-473.5,389.5 -479.1,418.7 -469.8,427.9 -438.2,396.3 -447.4,387 -464.9,404.5 -459.3,375.1 
		-468.5,366 -500.1,397.6 -490.9,406.8 	"/>
	<polygon fill="#808C8D" points="-418.1,479.7 -392.6,465.3 -407,490.7 -397.4,500.3 -358.8,475.7 -368,466.4 -389.1,480.8 
		-376.3,458.2 -385.5,448.9 -408.1,461.8 -393.8,440.7 -403.1,431.4 -427.7,470.1 	"/>
	<path fill="#808C8D" d="M-338.5,513.7c2.9-3.7,4-7.3,3.4-11c-0.6-3.6-2.9-7.5-7-11.5c-3.3-3.3-6.3-5.5-9-6.5
		c-2.7-1.1-5.3-1.3-7.7-0.8c-2.4,0.5-4.4,1.6-6,3.2c-2.5,2.5-3.6,5.4-3.3,8.9c0.2,3.4,2,7.8,5.3,13c2,3.2,3.1,5.5,3.2,6.8
		c0.1,1.4-0.3,2.5-1.1,3.3c-0.9,0.9-2,1.2-3.4,1.1c-1.4-0.1-2.8-0.9-4.2-2.2c-1.9-1.9-2.7-4-2.4-6.2c0.2-1.4,0.9-3,2.2-4.7l-9.9-8.7
		c-2.9,3.5-4.4,7.3-4.4,11.4c0,4.1,2.7,8.9,8.1,14.3c3.1,3.1,6,5.2,8.9,6.3c2.9,1.1,5.8,1.4,8.6,0.8c2.8-0.6,5.3-1.9,7.3-3.9
		c1.7-1.7,2.9-3.7,3.4-5.9c0.6-2.2,0.4-4.8-0.5-7.5c-0.9-2.8-3-6.8-6.4-12c-1.4-2.1-2.1-3.6-2.1-4.4c-0.1-0.9,0.1-1.6,0.6-2.1
		c0.7-0.7,1.6-1,2.6-0.9c1.1,0.1,2.2,0.7,3.3,1.8c1.4,1.4,2.1,2.8,2.3,4.2c0.1,1.4-0.4,3-1.6,4.6L-338.5,513.7z"/>
	<polygon fill="#808C8D" points="-436.7,461 -429.5,453.9 -446.4,437 -440.2,430.8 -425,446 -418.5,439.5 -433.7,424.3 
		-428.7,419.3 -412.3,435.7 -405.5,428.9 -431.7,402.7 -463.4,434.4 	"/>
</g>
</svg>
